<?xml version="1.0" standalone="no"?>
<!DOCTYPE svg PUBLIC "-//W3C//DTD SVG 20010904//EN"
 "http://www.w3.org/TR/2001/REC-SVG-20010904/DTD/svg10.dtd">
<svg version="1.0" xmlns="http://www.w3.org/2000/svg"
 width="100.000000pt" height="100.000000pt" viewBox="0 0 100.000000 100.000000"
 preserveAspectRatio="xMidYMid meet">
<metadata>
Created by potrace 1.14, written by Peter Selinger 2001-2017
</metadata>
<g transform="translate(0.000000,100.000000) scale(0.100000,-0.100000)"
fill="#000000" stroke="none">
<path d="M690 929 c0 -5 -3 -8 -7 -7 -22 6 -82 -45 -90 -77 -17 -62 -18 -93
-6 -117 7 -16 10 -28 7 -28 -6 0 23 -28 64 -61 12 -10 106 -8 116 2 3 2 8 17
11 32 l8 29 -46 -4 c-24 -3 -51 0 -59 6 -16 12 -31 44 -31 64 1 34 4 43 12 38
5 -3 12 1 15 10 3 8 10 12 16 9 5 -3 10 -2 10 3 0 13 56 7 85 -8 40 -22 91
-169 64 -185 -4 -3 -6 -12 -3 -19 3 -7 -2 -19 -11 -26 -8 -7 -15 -17 -15 -22
0 -15 -29 -40 -39 -33 -5 3 -12 1 -15 -4 -6 -10 -67 -4 -76 7 -3 4 -11 8 -19
10 -8 2 -27 12 -42 23 -15 10 -32 19 -37 19 -6 0 -12 3 -14 8 -1 4 -25 22 -52
41 -27 19 -46 29 -41 21 5 -8 -6 -4 -23 9 -18 12 -32 20 -32 17 0 -3 -15 1
-32 8 -39 15 -123 13 -168 -4 -3 -1 -8 -2 -12 -1 -4 0 -30 -22 -57 -49 -27
-28 -54 -50 -60 -50 -6 0 -10 -3 -9 -7 1 -5 -5 -24 -14 -43 -9 -19 -20 -48
-24 -65 -10 -42 -11 -45 -14 -47 -17 -21 -17 -368 1 -368 3 0 5 -12 5 -28 l-1
-27 177 -3 c169 -2 178 -2 188 18 14 26 -9 72 -45 88 -22 10 -24 15 -14 33 8
16 8 23 -1 29 -9 5 -9 9 -1 11 7 3 1 19 -16 42 -20 28 -27 52 -30 95 -1 31 -5
69 -7 84 -4 17 0 28 10 32 8 3 13 10 9 16 -3 5 4 19 15 30 27 27 70 19 123
-22 20 -16 37 -26 37 -21 0 4 4 3 8 -3 9 -14 101 -57 127 -60 34 -5 99 -5 115
-1 61 16 79 23 112 46 21 14 38 31 38 37 0 7 7 15 16 18 8 3 13 10 10 15 -4 5
-2 11 4 13 6 2 12 13 15 26 3 12 8 32 11 45 11 41 12 142 2 154 -6 7 -7 13 -2
13 5 0 2 5 -6 10 -11 7 -11 10 -2 10 9 0 10 5 3 18 -5 9 -9 21 -9 25 1 20 -63
96 -93 112 -37 19 -159 30 -159 14z"/>
</g>
</svg>
